<?xml version="1.0" encoding="UTF-8"?>
<!-- Generator: Adobe Illustrator 26.5.0, SVG Export Plug-In . SVG Version: 6.00 Build 0)  -->
<svg xmlns="http://www.w3.org/2000/svg" xmlns:xlink="http://www.w3.org/1999/xlink" version="1.1" id="Capa_1" x="0px" y="0px" viewBox="0 0 512 512" style="enable-background:new 0 0 512 512;" xml:space="preserve" width="512" height="512">
<g>
	<path style="fill:#fff;" d="M150.321,427.777c-2.815,0-5.63-1.074-7.778-3.222l-54.762-54.762   c-4.296-4.296-4.296-11.261,0-15.557c4.297-4.295,11.26-4.295,15.557,0l54.762,54.762c4.296,4.296,4.296,11.261,0,15.557   C155.951,426.703,153.136,427.777,150.321,427.777z"/>
	<path d="M308.941,345.046c-37.983,0.001-73.655-14.753-100.446-41.543c-55.394-55.393-55.392-145.515-0.004-200.902   c26.79-26.79,62.461-41.544,100.442-41.545c37.91-0.001,73.519,14.697,100.29,41.391c0.116,0.11,0.228,0.224,0.34,0.341   c26.681,26.769,41.372,62.369,41.371,100.269c-0.001,37.982-14.755,73.652-41.545,100.442   C382.598,330.29,346.925,345.046,308.941,345.046z M308.934,83.056c-32.105,0.001-62.252,12.467-84.887,35.102   c-46.811,46.81-46.812,122.974-0.004,169.781c22.643,22.643,52.79,35.108,84.897,35.107c32.107,0,62.256-12.467,84.892-35.103   c22.635-22.635,35.101-52.781,35.102-84.886c0-32.105-12.465-62.251-35.099-84.885c-0.028-0.028-0.057-0.058-0.085-0.087   C371.123,95.494,341.006,83.056,308.934,83.056z"/>
	<path d="M452.509,59.47C414.162,21.12,363.173,0,308.936,0C254.7,0,203.711,21.12,165.36,59.47   c-38.354,38.355-59.477,89.347-59.477,143.583c0.001,37.257,9.97,72.983,28.644,104.133L14.573,426.992   c-19.415,19.416-19.414,51.007,0,70.421C23.977,506.819,36.483,512,49.785,512c13.301,0,25.807-5.18,35.199-14.572l120.165-119.765   c31.069,18.542,66.666,28.443,103.785,28.443c54.234,0,105.227-21.124,143.582-59.479c38.347-38.35,59.472-89.343,59.472-143.573   C511.987,148.816,490.864,97.824,452.509,59.47z M69.44,481.858C64.19,487.108,57.21,490,49.785,490   c-7.426,0-14.406-2.892-19.656-8.143c-10.837-10.837-10.836-28.471-0.004-39.304L147.102,325.72   c5.564,7.309,11.647,14.299,18.254,20.906c6.7,6.701,13.794,12.863,21.216,18.491L69.44,481.858z M436.96,331.069   c-34.2,34.2-79.667,53.036-128.025,53.036c-35.742,0-69.898-10.3-99.098-29.478c-0.139-0.096-0.28-0.186-0.423-0.275   c-10.15-6.707-19.701-14.482-28.501-23.283c-8.689-8.689-16.381-18.109-23.029-28.116c-0.095-0.153-0.193-0.305-0.296-0.455   c-19.323-29.275-29.703-63.562-29.704-99.446c0-48.36,18.834-93.827,53.033-128.026C215.111,40.832,260.576,22,308.936,22   c48.359,0,93.823,18.832,128.017,53.026c34.2,34.199,53.034,79.667,53.035,128.026C489.988,251.41,471.156,296.874,436.96,331.069z   "/>
	<g>
		<line x1="308.445" y1="203.626" x2="308.445" y2="203.626"/>
		<path style="fill:#fff;" d="M308.448,214.63c-15.811-0.306-13.413-24.595,2.15-21.79    C323.335,195.07,321.364,214.924,308.448,214.63z"/>
	</g>
	<g>
		<line x1="369.852" y1="203.626" x2="369.852" y2="203.626"/>
		<path style="fill:#fff;" d="M369.847,214.63c-15.797-0.309-13.403-24.593,2.151-21.79    C384.749,195.061,382.775,214.929,369.847,214.63z"/>
	</g>
	<g>
		<line x1="250.062" y1="203.626" x2="250.062" y2="203.626"/>
		<path style="fill:#fff;" d="M250.057,214.62c-15.802-0.284-13.402-24.589,2.151-21.78    C264.949,195.053,262.986,214.947,250.057,214.62z"/>
	</g>
</g>















</svg>
